<svg width="14" height="14" viewBox="0 0 14 14" fill="none" xmlns="http://www.w3.org/2000/svg">
<path fill-rule="evenodd" clip-rule="evenodd" d="M11 2C11 0.895431 10.1046 0 9 0H5C3.89543 0 3 0.895431 3 2L3 3H1C0.447716 3 0 3.44772 0 4V13C0 13.5523 0.447715 14 1 14H13C13.5523 14 14 13.5523 14 13V4C14 3.44772 13.5523 3 13 3H11V2ZM5 2.5C5 2.22386 5.22386 2 5.5 2H8.5C8.77614 2 9 2.22386 9 2.5V3H5V2.5ZM2 5.5C2 5.22386 2.22386 5 2.5 5H11.5C11.7761 5 12 5.22386 12 5.5V11.5C12 11.7761 11.7761 12 11.5 12H2.5C2.22386 12 2 11.7761 2 11.5V5.5Z" fill="#57656A"/>
</svg>
