<svg width="12" height="16" viewBox="0 0 12 16" fill="none" xmlns="http://www.w3.org/2000/svg">
<path fill-rule="evenodd" clip-rule="evenodd" d="M12 15C12 15.5523 11.5523 16 11 16H2.5C1.11929 16 0 14.8807 0 13.5V2.5C0 1.11929 1.11929 0 2.5 0H11C11.5523 0 12 0.447715 12 1V12C11.176 12.412 11.176 13.588 12 14V15ZM2 3C2 2.44772 2.44772 2 3 2H9.5C9.77614 2 10 2.22386 10 2.5V9.5C10 9.77614 9.77614 10 9.5 10H2.5C2.22386 10 2 9.77614 2 9.5V3ZM10 14H3C2.44772 14 2 13.5523 2 13C2 12.4477 2.44772 12 3 12H10C9.03899 12.3203 9.03899 13.6797 10 14Z" fill="#57656A"/>
</svg>
