<svg width="14" height="16" viewBox="0 0 14 16" fill="none" xmlns="http://www.w3.org/2000/svg">
<path fill-rule="evenodd" clip-rule="evenodd" d="M2 16C0.89543 16 0 15.1046 0 14V2C0 0.895431 0.895431 0 2 0H8.75736C9.55301 0 10.3161 0.316071 10.8787 0.87868L13.1213 3.12132C13.6839 3.68393 14 4.44699 14 5.24264V14C14 15.1046 13.1046 16 12 16H2ZM11.5 14C11.7761 14 12 13.7761 12 13.5V5.44975C12 5.05192 11.842 4.67039 11.5607 4.38909L9.61091 2.43934C9.32961 2.15804 8.94808 2 8.55025 2H2.5C2.22386 2 2 2.22386 2 2.5V13.5C2 13.7761 2.22386 14 2.5 14H11.5Z" fill="#0078D2"/>
<path d="M4 6C4 5.44772 4.44772 5 5 5H8C8.55228 5 9 5.44772 9 6C9 6.55228 8.55228 7 8 7H5C4.44772 7 4 6.55228 4 6Z" fill="#0078D2"/>
<path d="M4 10C4 9.44772 4.44772 9 5 9H9C9.55228 9 10 9.44772 10 10C10 10.5523 9.55228 11 9 11H5C4.44772 11 4 10.5523 4 10Z" fill="#0078D2"/>
</svg>
