<svg width="132" height="48" viewBox="0 0 132 48" fill="none" xmlns="http://www.w3.org/2000/svg">
<path d="M0.880682 38.7273H1.93182L4.40341 44.7642H4.48864L6.96023 38.7273H8.01136V46H7.1875V40.4744H7.11648L4.84375 46H4.0483L1.77557 40.4744H1.70455V46H0.880682V38.7273ZM11.9505 46.1136C11.4249 46.1136 10.9715 45.9976 10.5904 45.7656C10.2116 45.5312 9.91921 45.2045 9.71325 44.7855C9.50965 44.3641 9.40785 43.8741 9.40785 43.3153C9.40785 42.7566 9.50965 42.2642 9.71325 41.8381C9.91921 41.4096 10.2057 41.0758 10.5726 40.8366C10.9419 40.5952 11.3728 40.4744 11.8652 40.4744C12.1493 40.4744 12.4299 40.5218 12.7069 40.6165C12.9838 40.7112 13.236 40.8651 13.4632 41.0781C13.6905 41.2888 13.8716 41.5682 14.0066 41.9162C14.1415 42.2642 14.209 42.6927 14.209 43.2017V43.5568H10.0044V42.8324H13.3567C13.3567 42.5246 13.2952 42.25 13.1721 42.0085C13.0513 41.767 12.8785 41.5765 12.6536 41.4368C12.431 41.2971 12.1683 41.2273 11.8652 41.2273C11.5314 41.2273 11.2426 41.3101 10.9988 41.4759C10.7573 41.6392 10.5714 41.8523 10.4412 42.1151C10.311 42.3778 10.2459 42.6596 10.2459 42.9602V43.4432C10.2459 43.8551 10.3169 44.2043 10.459 44.4908C10.6034 44.7749 10.8034 44.9915 11.0591 45.1406C11.3148 45.2874 11.6119 45.3608 11.9505 45.3608C12.1706 45.3608 12.3695 45.33 12.5471 45.2685C12.727 45.2045 12.882 45.1098 13.0123 44.9844C13.1425 44.8565 13.2431 44.6979 13.3141 44.5085L14.1238 44.7358C14.0385 45.0104 13.8953 45.2519 13.6941 45.4602C13.4928 45.6662 13.2443 45.8272 12.9483 45.9432C12.6524 46.0568 12.3198 46.1136 11.9505 46.1136ZM19.1344 42.8892V43.6705H16.123V42.8892H19.1344ZM16.3219 40.5455V46H15.4838V40.5455H16.3219ZM19.7736 40.5455V46H18.9355V40.5455H19.7736ZM23.5911 46.1136C23.0655 46.1136 22.6122 45.9976 22.231 45.7656C21.8522 45.5312 21.5598 45.2045 21.3539 44.7855C21.1503 44.3641 21.0485 43.8741 21.0485 43.3153C21.0485 42.7566 21.1503 42.2642 21.3539 41.8381C21.5598 41.4096 21.8463 41.0758 22.2132 40.8366C22.5826 40.5952 23.0134 40.4744 23.5059 40.4744C23.79 40.4744 24.0705 40.5218 24.3475 40.6165C24.6245 40.7112 24.8766 40.8651 25.1039 41.0781C25.3311 41.2888 25.5123 41.5682 25.6472 41.9162C25.7821 42.2642 25.8496 42.6927 25.8496 43.2017V43.5568H21.6451V42.8324H24.9973C24.9973 42.5246 24.9358 42.25 24.8127 42.0085C24.6919 41.767 24.5191 41.5765 24.2942 41.4368C24.0717 41.2971 23.8089 41.2273 23.5059 41.2273C23.1721 41.2273 22.8832 41.3101 22.6394 41.4759C22.3979 41.6392 22.2121 41.8523 22.0819 42.1151C21.9516 42.3778 21.8865 42.6596 21.8865 42.9602V43.4432C21.8865 43.8551 21.9576 44.2043 22.0996 44.4908C22.244 44.7749 22.4441 44.9915 22.6998 45.1406C22.9554 45.2874 23.2525 45.3608 23.5911 45.3608C23.8113 45.3608 24.0101 45.33 24.1877 45.2685C24.3676 45.2045 24.5227 45.1098 24.6529 44.9844C24.7831 44.8565 24.8837 44.6979 24.9547 44.5085L25.7644 44.7358C25.6792 45.0104 25.5359 45.2519 25.3347 45.4602C25.1335 45.6662 24.8849 45.8272 24.589 45.9432C24.293 46.0568 23.9604 46.1136 23.5911 46.1136ZM26.5421 47.5625V45.2188H26.9966C27.1079 45.1027 27.2038 44.9773 27.2843 44.8423C27.3648 44.7074 27.4346 44.5476 27.4938 44.3629C27.5553 44.1759 27.6074 43.9486 27.65 43.6811C27.6926 43.4112 27.7305 43.0857 27.7637 42.7045L27.9483 40.5455H31.4142V45.2188H32.2523V47.5625H31.4142V46H27.3801V47.5625H26.5421ZM27.9483 45.2188H30.5762V41.3267H28.7296L28.5875 42.7045C28.5283 43.2751 28.455 43.7734 28.3674 44.1996C28.2798 44.6257 28.1401 44.9654 27.9483 45.2188ZM33.0238 46L35.2397 43.2301L33.0522 40.5455H34.0465L35.8647 42.875H36.3192V40.5455H37.1573V42.875H37.5977L39.4158 40.5455H40.4102L38.2369 43.2301L40.4386 46H39.43L37.5835 43.6562H37.1573V46H36.3192V43.6562H35.8931L34.0323 46H33.0238ZM44.6191 44.8636L46.5225 40.5455H47.318L44.96 46H44.2782L41.9629 40.5455H42.7441L44.6191 44.8636ZM42.4743 40.5455V46H41.6362V40.5455H42.4743ZM46.764 46V40.5455H47.6021V46H46.764ZM51.4231 46.1136C50.8975 46.1136 50.4442 45.9976 50.063 45.7656C49.6842 45.5312 49.3919 45.2045 49.1859 44.7855C48.9823 44.3641 48.8805 43.8741 48.8805 43.3153C48.8805 42.7566 48.9823 42.2642 49.1859 41.8381C49.3919 41.4096 49.6783 41.0758 50.0453 40.8366C50.4146 40.5952 50.8455 40.4744 51.3379 40.4744C51.622 40.4744 51.9025 40.5218 52.1795 40.6165C52.4565 40.7112 52.7086 40.8651 52.9359 41.0781C53.1632 41.2888 53.3443 41.5682 53.4792 41.9162C53.6142 42.2642 53.6816 42.6927 53.6816 43.2017V43.5568H49.4771V42.8324H52.8294C52.8294 42.5246 52.7678 42.25 52.6447 42.0085C52.524 41.767 52.3511 41.5765 52.1262 41.4368C51.9037 41.2971 51.6409 41.2273 51.3379 41.2273C51.0041 41.2273 50.7153 41.3101 50.4714 41.4759C50.2299 41.6392 50.0441 41.8523 49.9139 42.1151C49.7837 42.3778 49.7186 42.6596 49.7186 42.9602V43.4432C49.7186 43.8551 49.7896 44.2043 49.9316 44.4908C50.0761 44.7749 50.2761 44.9915 50.5318 45.1406C50.7875 45.2874 51.0846 45.3608 51.4231 45.3608C51.6433 45.3608 51.8422 45.33 52.0197 45.2685C52.1996 45.2045 52.3547 45.1098 52.4849 44.9844C52.6151 44.8565 52.7157 44.6979 52.7868 44.5085L53.5964 44.7358C53.5112 45.0104 53.368 45.2519 53.1667 45.4602C52.9655 45.6662 52.7169 45.8272 52.421 45.9432C52.1251 46.0568 51.7924 46.1136 51.4231 46.1136ZM58.6071 42.8892V43.6705H55.5957V42.8892H58.6071ZM55.7946 40.5455V46H54.9565V40.5455H55.7946ZM59.2463 40.5455V46H58.4082V40.5455H59.2463ZM60.0346 41.3267V40.5455H64.4664V41.3267H62.6767V46H61.8386V41.3267H60.0346ZM68.5307 42.4915V43.2727H65.3489V42.4915H68.5307ZM70.0053 46V40.5455H70.8434V42.9176H71.3974L73.3576 40.5455H74.4371L72.2354 43.1733L74.4656 46H73.386L71.5962 43.6989H70.8434V46H70.0053ZM77.3677 46.1136C76.8753 46.1136 76.4432 45.9964 76.0716 45.7621C75.7022 45.5277 75.4134 45.1998 75.2051 44.7784C74.9991 44.357 74.8961 43.8646 74.8961 43.3011C74.8961 42.733 74.9991 42.237 75.2051 41.8132C75.4134 41.3894 75.7022 41.0604 76.0716 40.826C76.4432 40.5916 76.8753 40.4744 77.3677 40.4744C77.8601 40.4744 78.291 40.5916 78.6603 40.826C79.032 41.0604 79.3208 41.3894 79.5268 41.8132C79.7351 42.237 79.8393 42.733 79.8393 43.3011C79.8393 43.8646 79.7351 44.357 79.5268 44.7784C79.3208 45.1998 79.032 45.5277 78.6603 45.7621C78.291 45.9964 77.8601 46.1136 77.3677 46.1136ZM77.3677 45.3608C77.7418 45.3608 78.0495 45.2649 78.291 45.0732C78.5325 44.8814 78.7112 44.6293 78.8272 44.3168C78.9432 44.0043 79.0012 43.6657 79.0012 43.3011C79.0012 42.9366 78.9432 42.5968 78.8272 42.282C78.7112 41.9671 78.5325 41.7126 78.291 41.5185C78.0495 41.3243 77.7418 41.2273 77.3677 41.2273C76.9937 41.2273 76.6859 41.3243 76.4444 41.5185C76.2029 41.7126 76.0242 41.9671 75.9082 42.282C75.7922 42.5968 75.7342 42.9366 75.7342 43.3011C75.7342 43.6657 75.7922 44.0043 75.9082 44.3168C76.0242 44.6293 76.2029 44.8814 76.4444 45.0732C76.6859 45.2649 76.9937 45.3608 77.3677 45.3608ZM84.7692 42.8892V43.6705H81.7578V42.8892H84.7692ZM81.9567 40.5455V46H81.1186V40.5455H81.9567ZM85.4084 40.5455V46H84.5703V40.5455H85.4084ZM89.1548 46.1136C88.6435 46.1136 88.2031 45.9929 87.8338 45.7514C87.4645 45.5099 87.1804 45.1773 86.9815 44.7536C86.7827 44.3298 86.6832 43.8456 86.6832 43.3011C86.6832 42.7472 86.785 42.2583 86.9886 41.8345C87.1946 41.4084 87.4811 41.0758 87.848 40.8366C88.2173 40.5952 88.6482 40.4744 89.1406 40.4744C89.5241 40.4744 89.8698 40.5455 90.1776 40.6875C90.4853 40.8295 90.7375 41.0284 90.9339 41.2841C91.1304 41.5398 91.2524 41.8381 91.2997 42.179H90.4616C90.3977 41.9304 90.2557 41.7102 90.0355 41.5185C89.8177 41.3243 89.5241 41.2273 89.1548 41.2273C88.8281 41.2273 88.5417 41.3125 88.2955 41.483C88.0516 41.651 87.861 41.889 87.7237 42.1967C87.5888 42.5021 87.5213 42.8608 87.5213 43.2727C87.5213 43.6941 87.5876 44.0611 87.7202 44.3736C87.8551 44.6861 88.0445 44.9287 88.2884 45.1016C88.5346 45.2744 88.8234 45.3608 89.1548 45.3608C89.3726 45.3608 89.5703 45.3229 89.7479 45.2472C89.9254 45.1714 90.0758 45.0625 90.1989 44.9205C90.322 44.7784 90.4096 44.608 90.4616 44.4091H91.2997C91.2524 44.7311 91.1352 45.0211 90.9482 45.2791C90.7635 45.5348 90.5185 45.7384 90.2131 45.8899C89.91 46.0391 89.5573 46.1136 89.1548 46.1136ZM94.13 46.1278C93.7843 46.1278 93.4706 46.0627 93.1889 45.9325C92.9072 45.8 92.6835 45.6094 92.5178 45.3608C92.352 45.1098 92.2692 44.8068 92.2692 44.4517C92.2692 44.1392 92.3307 43.8859 92.4538 43.6918C92.5769 43.4953 92.7415 43.3414 92.9474 43.2301C93.1534 43.1188 93.3807 43.036 93.6293 42.9815C93.8802 42.9247 94.1323 42.8797 94.3857 42.8466C94.7171 42.804 94.9858 42.772 95.1918 42.7507C95.4001 42.727 95.5516 42.688 95.6463 42.6335C95.7434 42.5791 95.7919 42.4844 95.7919 42.3494V42.321C95.7919 41.9706 95.696 41.6984 95.5043 41.5043C95.3149 41.3101 95.0272 41.2131 94.6413 41.2131C94.2412 41.2131 93.9276 41.3007 93.7003 41.4759C93.473 41.651 93.3132 41.8381 93.2209 42.0369L92.4254 41.7528C92.5675 41.4214 92.7569 41.1634 92.9936 40.9787C93.2327 40.7917 93.4931 40.6615 93.7749 40.5881C94.0589 40.5123 94.3383 40.4744 94.6129 40.4744C94.7881 40.4744 94.9893 40.4957 95.2166 40.5384C95.4463 40.5786 95.6676 40.6626 95.8807 40.7905C96.0961 40.9183 96.2749 41.1113 96.4169 41.3693C96.5589 41.6274 96.63 41.973 96.63 42.4062V46H95.7919V45.2614H95.7493C95.6925 45.3797 95.5978 45.5064 95.4652 45.6413C95.3326 45.7763 95.1563 45.8911 94.9361 45.9858C94.7159 46.0805 94.4472 46.1278 94.13 46.1278ZM94.2578 45.375C94.5893 45.375 94.8686 45.3099 95.0959 45.1797C95.3255 45.0495 95.4983 44.8814 95.6143 44.6754C95.7327 44.4695 95.7919 44.2528 95.7919 44.0256V43.2585C95.7564 43.3011 95.6783 43.3402 95.5575 43.3757C95.4392 43.4089 95.3018 43.4384 95.1456 43.4645C94.9917 43.4882 94.8414 43.5095 94.6946 43.5284C94.5502 43.545 94.433 43.5592 94.343 43.571C94.1252 43.5994 93.9216 43.6456 93.7322 43.7095C93.5452 43.7711 93.3937 43.8646 93.2777 43.9901C93.1641 44.1132 93.1072 44.2812 93.1072 44.4943C93.1072 44.7855 93.215 45.0057 93.4304 45.1548C93.6482 45.3016 93.924 45.375 94.2578 45.375ZM97.6767 46V45.2188H97.8755C98.0389 45.2188 98.175 45.1868 98.2839 45.1229C98.3928 45.0566 98.4804 44.9418 98.5467 44.7784C98.6154 44.6127 98.6674 44.383 98.7029 44.0895C98.7408 43.7936 98.7681 43.4171 98.7846 42.9602L98.8841 40.5455H102.52V46H101.682V41.3267H99.6795L99.5943 43.2727C99.5753 43.7202 99.5351 44.1143 99.4735 44.4553C99.4144 44.7938 99.3232 45.0779 99.2001 45.3075C99.0794 45.5372 98.9184 45.71 98.7172 45.826C98.5159 45.942 98.2638 46 97.9608 46H97.6767ZM103.316 41.3267V40.5455H107.748V41.3267H105.958V46H105.12V41.3267H103.316ZM109.808 44.7642L112.436 40.5455H113.402V46H112.564V41.7812L109.95 46H108.97V40.5455H109.808V44.7642ZM118.588 42.8892V43.6705H115.576V42.8892H118.588ZM115.775 40.5455V46H114.937V40.5455H115.775ZM119.227 40.5455V46H118.389V40.5455H119.227ZM124.124 40.5455V41.3267H121.595V46H120.757V40.5455H124.124Z" fill="#999AA9"/>
<path d="M112.64 0H110V28H115.28V16.8H126.72V28H132V0H129.36H126.72V12.1333H115.28V0H112.64Z" fill="white"/>
<path fill-rule="evenodd" clip-rule="evenodd" d="M103 14C103 21.732 94.0457 28 83 28C78.77 28 74.8467 27.0808 71.6156 25.5121L68.7143 28H67.0816V22.4769C64.5206 20.124 63 17.1863 63 14C63 6.26801 71.9543 0 83 0C94.0457 0 103 6.26801 103 14ZM98.102 14C98.102 15.182 97.3983 17.154 94.5846 19.1235C91.8537 21.0352 87.7702 22.4 83 22.4C78.2298 22.4 74.1463 21.0352 71.4154 19.1235C68.6017 17.154 67.898 15.182 67.898 14C67.898 12.818 68.6017 10.846 71.4154 8.87647C74.1463 6.96483 78.2298 5.6 83 5.6C87.7702 5.6 91.8537 6.96483 94.5846 8.87647C97.3983 10.846 98.102 12.818 98.102 14Z" fill="white"/>
<path d="M75.2449 10.2667C72.9907 10.2667 71.1633 12.356 71.1633 14.9333H79.3265C79.3265 12.356 77.4991 10.2667 75.2449 10.2667Z" fill="white"/>
<path d="M89.1224 10.2667C86.8682 10.2667 85.0408 12.356 85.0408 14.9333H93.2041C93.2041 12.356 91.3767 10.2667 89.1224 10.2667Z" fill="white"/>
<path d="M35 28V0H40.0769V20.5333L51.5 0H57V28H51.9231V7.93333L40.5 28H35Z" fill="white"/>
<path d="M0 0V28H4.85294V7.46667L12.7941 28H17.2059L25.1471 7.46667L24.7059 28H30V0H23.3824L15 21L6.61765 0H0Z" fill="white"/>
</svg>
