<svg width="380" height="120" viewBox="0 0 380 120" fill="none" xmlns="http://www.w3.org/2000/svg">
<path d="M324.266 0H316.666V80H331.866V48H364.8V80H380V0H372.4H364.8V34.6667H331.866V0H324.266Z" fill="white"/>
<path fill-rule="evenodd" clip-rule="evenodd" d="M299.396 40C299.396 62.0914 273.619 80 241.82 80C231.173 80 221.201 77.9921 212.645 74.4917L201.517 80V68.5657C190.858 61.306 184.244 51.1896 184.244 40C184.244 17.9086 210.022 0 241.82 0C273.619 0 299.396 17.9086 299.396 40ZM285.002 40C285.002 45.1046 282.043 51.1866 274.278 56.581C266.559 61.9437 255.128 65.7143 241.82 65.7143C228.512 65.7143 217.081 61.9437 209.362 56.581C201.598 51.1866 198.638 45.1046 198.638 40C198.638 34.8954 201.598 28.8134 209.362 23.419C217.081 18.0563 228.512 14.2857 241.82 14.2857C255.128 14.2857 266.559 18.0563 274.278 23.419C282.043 28.8134 285.002 34.8954 285.002 40Z" fill="white"/>
<path d="M259.446 29.3331C252.956 29.3331 247.695 35.3027 247.695 42.6665H271.196C271.196 35.3027 265.935 29.3331 259.446 29.3331Z" fill="white"/>
<path d="M219.495 29.3331C213.005 29.3331 207.745 35.3027 207.745 42.6665H231.245C231.245 35.3027 225.984 29.3331 219.495 29.3331Z" fill="white"/>
<path d="M103.637 80V0H118.253V58.6667L151.138 0H166.971V80H152.356V22.6667L119.471 80H103.637Z" fill="white"/>
<path d="M0 0V80H13.9707V21.3333L36.8317 80H49.5323L72.3934 21.3333L71.1233 80H86.364V0H67.3131L43.182 60L19.0509 0H0Z" fill="white"/>
<path d="M1.9375 96H4.25L9.6875 109.281H9.875L15.3125 96H17.625V112H15.8125V99.8438H15.6563L10.6562 112H8.90625L3.90625 99.8438H3.75V112H1.9375V96ZM26.291 112.25C25.1348 112.25 24.1374 111.995 23.2988 111.484C22.4655 110.969 21.8223 110.25 21.3691 109.328C20.9212 108.401 20.6973 107.323 20.6973 106.094C20.6973 104.865 20.9212 103.781 21.3691 102.844C21.8223 101.901 22.4525 101.167 23.2598 100.641C24.0723 100.109 25.0202 99.8438 26.1035 99.8438C26.7285 99.8438 27.3457 99.9479 27.9551 100.156C28.5645 100.365 29.1191 100.703 29.6191 101.172C30.1191 101.635 30.5176 102.25 30.8145 103.016C31.1113 103.781 31.2598 104.724 31.2598 105.844V106.625H22.0098V105.031H29.3848C29.3848 104.354 29.2493 103.75 28.9785 103.219C28.7129 102.687 28.3327 102.268 27.8379 101.961C27.3483 101.654 26.7702 101.5 26.1035 101.5C25.3691 101.5 24.7337 101.682 24.1973 102.047C23.666 102.406 23.2572 102.875 22.9707 103.453C22.6842 104.031 22.541 104.651 22.541 105.312V106.375C22.541 107.281 22.6973 108.049 23.0098 108.68C23.3275 109.305 23.7676 109.781 24.3301 110.109C24.8926 110.432 25.5462 110.594 26.291 110.594C26.7754 110.594 27.2129 110.526 27.6035 110.391C27.9993 110.25 28.3405 110.042 28.627 109.766C28.9134 109.484 29.1348 109.135 29.291 108.719L31.0723 109.219C30.8848 109.823 30.5697 110.354 30.127 110.812C29.6842 111.266 29.1374 111.62 28.4863 111.875C27.8353 112.125 27.1035 112.25 26.291 112.25ZM42.0957 105.156V106.875H35.4707V105.156H42.0957ZM35.9082 100V112H34.0645V100H35.9082ZM43.502 100V112H41.6582V100H43.502ZM51.9004 112.25C50.7441 112.25 49.7467 111.995 48.9082 111.484C48.0749 110.969 47.4316 110.25 46.9785 109.328C46.5306 108.401 46.3066 107.323 46.3066 106.094C46.3066 104.865 46.5306 103.781 46.9785 102.844C47.4316 101.901 48.0618 101.167 48.8691 100.641C49.6816 100.109 50.6296 99.8438 51.7129 99.8438C52.3379 99.8438 52.9551 99.9479 53.5645 100.156C54.1738 100.365 54.7285 100.703 55.2285 101.172C55.7285 101.635 56.127 102.25 56.4238 103.016C56.7207 103.781 56.8691 104.724 56.8691 105.844V106.625H47.6191V105.031H54.9941C54.9941 104.354 54.8587 103.75 54.5879 103.219C54.3223 102.687 53.9421 102.268 53.4473 101.961C52.9577 101.654 52.3796 101.5 51.7129 101.5C50.9785 101.5 50.3431 101.682 49.8066 102.047C49.2754 102.406 48.8665 102.875 48.5801 103.453C48.2936 104.031 48.1504 104.651 48.1504 105.312V106.375C48.1504 107.281 48.3066 108.049 48.6191 108.68C48.9368 109.305 49.377 109.781 49.9395 110.109C50.502 110.432 51.1556 110.594 51.9004 110.594C52.3848 110.594 52.8223 110.526 53.2129 110.391C53.6087 110.25 53.9499 110.042 54.2363 109.766C54.5228 109.484 54.7441 109.135 54.9004 108.719L56.6816 109.219C56.4941 109.823 56.179 110.354 55.7363 110.812C55.2936 111.266 54.7467 111.62 54.0957 111.875C53.4447 112.125 52.7129 112.25 51.9004 112.25ZM58.3926 115.438V110.281H59.3926C59.6374 110.026 59.8483 109.75 60.0254 109.453C60.2025 109.156 60.3561 108.805 60.4863 108.398C60.6217 107.987 60.7363 107.487 60.8301 106.898C60.9238 106.305 61.0072 105.589 61.0801 104.75L61.4863 100H69.1113V110.281H70.9551V115.438H69.1113V112H60.2363V115.438H58.3926ZM61.4863 110.281H67.2676V101.719H63.2051L62.8926 104.75C62.7624 106.005 62.6009 107.102 62.4082 108.039C62.2155 108.977 61.9082 109.724 61.4863 110.281ZM72.6523 112L77.5273 105.906L72.7148 100H74.9023L78.9023 105.125H79.9023V100H81.7461V105.125H82.7148L86.7148 100H88.9023L84.1211 105.906L88.9648 112H86.7461L82.6836 106.844H81.7461V112H79.9023V106.844H78.9648L74.8711 112H72.6523ZM98.1621 109.5L102.35 100H104.1L98.9121 112H97.4121L92.3184 100H94.0371L98.1621 109.5ZM93.4434 100V112H91.5996V100H93.4434ZM102.881 112V100H104.725V112H102.881ZM113.131 112.25C111.975 112.25 110.977 111.995 110.139 111.484C109.305 110.969 108.662 110.25 108.209 109.328C107.761 108.401 107.537 107.323 107.537 106.094C107.537 104.865 107.761 103.781 108.209 102.844C108.662 101.901 109.292 101.167 110.1 100.641C110.912 100.109 111.86 99.8438 112.943 99.8438C113.568 99.8438 114.186 99.9479 114.795 100.156C115.404 100.365 115.959 100.703 116.459 101.172C116.959 101.635 117.357 102.25 117.654 103.016C117.951 103.781 118.1 104.724 118.1 105.844V106.625H108.85V105.031H116.225C116.225 104.354 116.089 103.75 115.818 103.219C115.553 102.687 115.173 102.268 114.678 101.961C114.188 101.654 113.61 101.5 112.943 101.5C112.209 101.5 111.574 101.682 111.037 102.047C110.506 102.406 110.097 102.875 109.811 103.453C109.524 104.031 109.381 104.651 109.381 105.312V106.375C109.381 107.281 109.537 108.049 109.85 108.68C110.167 109.305 110.607 109.781 111.17 110.109C111.732 110.432 112.386 110.594 113.131 110.594C113.615 110.594 114.053 110.526 114.443 110.391C114.839 110.25 115.18 110.042 115.467 109.766C115.753 109.484 115.975 109.135 116.131 108.719L117.912 109.219C117.725 109.823 117.41 110.354 116.967 110.812C116.524 111.266 115.977 111.62 115.326 111.875C114.675 112.125 113.943 112.25 113.131 112.25ZM128.936 105.156V106.875H122.311V105.156H128.936ZM122.748 100V112H120.904V100H122.748ZM130.342 100V112H128.498V100H130.342ZM132.076 101.719V100H141.826V101.719H137.889V112H136.045V101.719H132.076ZM150.768 104.281V106H143.768V104.281H150.768ZM154.012 112V100H155.855V105.219H157.074L161.387 100H163.762L158.918 105.781L163.824 112H161.449L157.512 106.937H155.855V112H154.012ZM170.209 112.25C169.126 112.25 168.175 111.992 167.357 111.477C166.545 110.961 165.91 110.24 165.451 109.312C164.998 108.385 164.771 107.302 164.771 106.062C164.771 104.812 164.998 103.721 165.451 102.789C165.91 101.857 166.545 101.133 167.357 100.617C168.175 100.102 169.126 99.8438 170.209 99.8438C171.292 99.8438 172.24 100.102 173.053 100.617C173.87 101.133 174.506 101.857 174.959 102.789C175.417 103.721 175.646 104.812 175.646 106.062C175.646 107.302 175.417 108.385 174.959 109.312C174.506 110.24 173.87 110.961 173.053 111.477C172.24 111.992 171.292 112.25 170.209 112.25ZM170.209 110.594C171.032 110.594 171.709 110.383 172.24 109.961C172.771 109.539 173.165 108.984 173.42 108.297C173.675 107.609 173.803 106.865 173.803 106.062C173.803 105.26 173.675 104.513 173.42 103.82C173.165 103.128 172.771 102.568 172.24 102.141C171.709 101.714 171.032 101.5 170.209 101.5C169.386 101.5 168.709 101.714 168.178 102.141C167.646 102.568 167.253 103.128 166.998 103.82C166.743 104.513 166.615 105.26 166.615 106.062C166.615 106.865 166.743 107.609 166.998 108.297C167.253 108.984 167.646 109.539 168.178 109.961C168.709 110.383 169.386 110.594 170.209 110.594ZM186.492 105.156V106.875H179.867V105.156H186.492ZM180.305 100V112H178.461V100H180.305ZM187.898 100V112H186.055V100H187.898ZM196.141 112.25C195.016 112.25 194.047 111.984 193.234 111.453C192.422 110.922 191.797 110.19 191.359 109.258C190.922 108.326 190.703 107.26 190.703 106.062C190.703 104.844 190.927 103.768 191.375 102.836C191.828 101.898 192.458 101.167 193.266 100.641C194.078 100.109 195.026 99.8438 196.109 99.8438C196.953 99.8438 197.714 100 198.391 100.312C199.068 100.625 199.622 101.062 200.055 101.625C200.487 102.187 200.755 102.844 200.859 103.594H199.016C198.875 103.047 198.563 102.562 198.078 102.141C197.599 101.714 196.953 101.5 196.141 101.5C195.422 101.5 194.792 101.687 194.25 102.062C193.714 102.432 193.294 102.956 192.992 103.633C192.695 104.305 192.547 105.094 192.547 106C192.547 106.927 192.693 107.734 192.984 108.422C193.281 109.109 193.698 109.643 194.234 110.023C194.776 110.404 195.411 110.594 196.141 110.594C196.62 110.594 197.055 110.51 197.445 110.344C197.836 110.177 198.167 109.938 198.438 109.625C198.708 109.312 198.901 108.937 199.016 108.5H200.859C200.755 109.208 200.497 109.846 200.086 110.414C199.68 110.977 199.141 111.424 198.469 111.758C197.802 112.086 197.026 112.25 196.141 112.25ZM207.086 112.281C206.326 112.281 205.635 112.138 205.016 111.852C204.396 111.56 203.904 111.141 203.539 110.594C203.174 110.042 202.992 109.375 202.992 108.594C202.992 107.906 203.128 107.349 203.398 106.922C203.669 106.49 204.031 106.151 204.484 105.906C204.937 105.661 205.438 105.479 205.984 105.359C206.536 105.234 207.091 105.135 207.648 105.063C208.378 104.969 208.969 104.898 209.422 104.852C209.88 104.799 210.214 104.714 210.422 104.594C210.635 104.474 210.742 104.266 210.742 103.969V103.906C210.742 103.135 210.531 102.536 210.109 102.109C209.693 101.682 209.06 101.469 208.211 101.469C207.331 101.469 206.641 101.661 206.141 102.047C205.641 102.432 205.289 102.844 205.086 103.281L203.336 102.656C203.648 101.927 204.065 101.359 204.586 100.953C205.112 100.542 205.685 100.255 206.305 100.094C206.93 99.9271 207.544 99.8438 208.148 99.8438C208.534 99.8438 208.977 99.8906 209.477 99.9844C209.982 100.073 210.469 100.258 210.938 100.539C211.411 100.82 211.805 101.245 212.117 101.812C212.43 102.38 212.586 103.141 212.586 104.094V112H210.742V110.375H210.648C210.523 110.635 210.315 110.914 210.023 111.211C209.732 111.508 209.344 111.76 208.859 111.969C208.375 112.177 207.784 112.281 207.086 112.281ZM207.367 110.625C208.096 110.625 208.711 110.482 209.211 110.195C209.716 109.909 210.096 109.539 210.352 109.086C210.612 108.633 210.742 108.156 210.742 107.656V105.969C210.664 106.062 210.492 106.148 210.227 106.227C209.966 106.299 209.664 106.365 209.32 106.422C208.982 106.474 208.651 106.521 208.328 106.562C208.01 106.599 207.753 106.63 207.555 106.656C207.076 106.719 206.628 106.82 206.211 106.961C205.799 107.096 205.466 107.302 205.211 107.578C204.961 107.849 204.836 108.219 204.836 108.687C204.836 109.328 205.073 109.812 205.547 110.141C206.026 110.464 206.633 110.625 207.367 110.625ZM214.889 112V110.281H215.326C215.686 110.281 215.985 110.211 216.225 110.07C216.464 109.924 216.657 109.672 216.803 109.312C216.954 108.948 217.068 108.443 217.146 107.797C217.23 107.146 217.29 106.318 217.326 105.312L217.545 100H225.545V112H223.701V101.719H219.295L219.107 106C219.066 106.984 218.977 107.852 218.842 108.602C218.712 109.346 218.511 109.971 218.24 110.477C217.975 110.982 217.62 111.362 217.178 111.617C216.735 111.872 216.18 112 215.514 112H214.889ZM227.295 101.719V100H237.045V101.719H233.107V112H231.264V101.719H227.295ZM241.578 109.281L247.359 100H249.484V112H247.641V102.719L241.891 112H239.734V100H241.578V109.281ZM260.893 105.156V106.875H254.268V105.156H260.893ZM254.705 100V112H252.861V100H254.705ZM262.299 100V112H260.455V100H262.299ZM273.072 100V101.719H267.51V112H265.666V100H273.072Z" fill="#999AA9"/>
</svg>
